<svg xmlns="http://www.w3.org/2000/svg" width="1600" height="520" viewBox="0 0 1600 520" role="img" aria-labelledby="title desc">
  <title id="title">Where I'd Eat</title>
  <desc id="desc">Food worth leaving your hotel for.</desc>
  <defs>
    <linearGradient id="bg" x1="0" y1="0" x2="1" y2="1"><stop offset="0" stop-color="#101317"/><stop offset="1" stop-color="#252b31"/></linearGradient>
    <radialGradient id="glow" cx="78%" cy="30%" r="62%"><stop offset="0" stop-color="#d5a84d" stop-opacity=".24"/><stop offset="1" stop-color="#d5a84d" stop-opacity="0"/></radialGradient>
  </defs>
  <rect width="1600" height="520" rx="28" fill="url(#bg)"/>
  <rect width="1600" height="520" rx="28" fill="url(#glow)"/>
  <g opacity=".16" stroke="#d8dde3" stroke-width="2">
    <path d="M980 70h470M1010 130h390M945 195h530M1000 260h420M930 330h565M1020 395h360"/>
    <path d="M1030 35v410M1110 55v350M1210 20v430M1320 65v340M1430 35v410"/>
  </g>
  <path d="M1020 384 C1100 330 1180 420 1260 338 S1420 264 1490 195" fill="none" stroke="#d7ad5b" stroke-width="8" stroke-linecap="round" stroke-dasharray="4 18"/>
  <circle cx="1020" cy="384" r="13" fill="#d7ad5b"/><circle cx="1490" cy="195" r="13" fill="#d7ad5b"/>
  <g transform="translate(1210 145)">
    <circle r="88" fill="#15191e" stroke="#f0e8d8" stroke-width="5"/><circle r="56" fill="none" stroke="#d7ad5b" stroke-width="4"/>
    <path d="M-118-70v145M-130-70v50M-118-70v50M-106-70v50M-130-20h24" stroke="#f0e8d8" stroke-width="7" stroke-linecap="round" fill="none"/>
    <path d="M120-72c-28 25-31 55-18 80l18 30v70" stroke="#f0e8d8" stroke-width="7" stroke-linecap="round" fill="none"/>
  </g>
  <g font-family="Inter,ui-sans-serif,system-ui,-apple-system,Segoe UI,sans-serif">
    <text x="92" y="182" fill="#f5f1e8" font-size="78" font-weight="760" letter-spacing="-3">Where I’d Eat</text>
    <text x="96" y="245" fill="#d7ad5b" font-size="31" font-weight="650">Food worth leaving your hotel for.</text>
    <line x1="96" y1="286" x2="515" y2="286" stroke="#d7ad5b" stroke-width="5" stroke-linecap="round"/>
    <text x="96" y="340" fill="#bbc3cc" font-size="24">Location-centered guides. Real research. Better meals.</text>
    <text x="96" y="385" fill="#8f99a5" font-size="21">Breakfast + coffee  •  Lunch + coffee  •  Dinner + dessert</text>
  </g>
  <g transform="translate(96 435)" font-family="Inter,ui-sans-serif,system-ui,sans-serif" font-size="18" fill="#f0e8d8">
    <rect x="0" y="-28" width="122" height="42" rx="21" fill="#252c34" stroke="#39434f"/><text x="27" y="0">Maps</text>
    <rect x="140" y="-28" width="140" height="42" rx="21" fill="#252c34" stroke="#39434f"/><text x="166" y="0">Yelp</text>
    <rect x="298" y="-28" width="178" height="42" rx="21" fill="#252c34" stroke="#39434f"/><text x="326" y="0">Local sources</text>
    <rect x="494" y="-28" width="194" height="42" rx="21" fill="#252c34" stroke="#39434f"/><text x="522" y="0">Live availability</text>
  </g>
</svg>
